# xmcd
#
# Track frame offsets:
#	150
#	8885
#	20710
#	34338
#	45608
#	57770
#	70638
#	78493
#	89935
#	99588
#	110350
#	123428
#	158950
#	167563
#	181093
#	192663
#	204793
#	218700
#
# Disc length: 3042 seconds
#
# Revision: 4
# Processed by: cddbd v1.5.2PL0 Copyright (c) Steve Scherf et al.
# Submitted via: EZCDAudioConverter 1.3.4.1
#
DISCID=f40be012
DTITLE=The La's - The La's 1/2
DYEAR=2008
DGENRE=
TTITLE0=Son Of A Gun
TTITLE1=I Can't Sleep
TTITLE2=Timeless Melody
TTITLE3=Liberty Ship
TTITLE4=There She Goes
TTITLE5=Doledrum
TTITLE6=Feelin'
TTITLE7=Way Out
TTITLE8=I.O.U.
TTITLE9=Freedom Song
TTITLE10=Failure
TTITLE11=Looking Glass
TTITLE12=Son Of A Gun [GLR Session]
TTITLE13=Doledrum [GLR Session]
TTITLE14=I Can't Sleep [GLR Session]
TTITLE15=Way Out [Key 103, Jan '89]
TTITLE16=I Am The Key [Key 103, Jan '89]
TTITLE17=That'll Be The Day [BBC 2 The Late Show Feb '89]
EXTD=
EXTT0=
EXTT1=
EXTT2=
EXTT3=
EXTT4=
EXTT5=
EXTT6=
EXTT7=
EXTT8=
EXTT9=
EXTT10=
EXTT11=
EXTT12=
EXTT13=
EXTT14=
EXTT15=
EXTT16=
EXTT17=
PLAYORDER=
